<svg width="20" height="20" viewBox="0 0 20 20" fill="none" xmlns="http://www.w3.org/2000/svg">
<g clip-path="url(#clip0_5_180)">
<circle cx="10" cy="10" r="10" fill="black"/>
<g clip-path="url(#clip1_5_180)">
<path d="M7.71807 15C12.3613 15 14.9017 11.1522 14.9017 7.81635C14.9017 7.70818 14.8993 7.5976 14.8945 7.48943C15.3887 7.13204 15.8152 6.68937 16.1539 6.18221C15.6936 6.38698 15.205 6.52072 14.7046 6.57885C15.2315 6.26304 15.626 5.76692 15.8149 5.18245C15.3193 5.47619 14.7773 5.6834 14.2121 5.79519C13.8312 5.39055 13.3277 5.12263 12.7794 5.03286C12.231 4.94308 11.6683 5.03645 11.1784 5.29852C10.6884 5.5606 10.2984 5.97678 10.0687 6.48273C9.83896 6.98869 9.78231 7.55622 9.90749 8.0976C8.90388 8.04724 7.92206 7.78652 7.02567 7.33237C6.12928 6.87821 5.33834 6.24075 4.70412 5.4613C4.38178 6.01706 4.28314 6.6747 4.42826 7.30057C4.57337 7.92644 4.95135 8.47357 5.48537 8.83077C5.08446 8.81804 4.69233 8.7101 4.34138 8.51587V8.54712C4.34102 9.13034 4.54265 9.6957 4.91199 10.1471C5.28133 10.5984 5.79559 10.908 6.36735 11.0231C5.99596 11.1247 5.60618 11.1395 5.22816 11.0663C5.3895 11.5679 5.70341 12.0066 6.12607 12.3212C6.54874 12.6358 7.05907 12.8106 7.58586 12.8212C6.69154 13.5237 5.58679 13.9047 4.44956 13.9029C4.24788 13.9026 4.0464 13.8902 3.84619 13.8659C5.0015 14.6071 6.34544 15.0007 7.71807 15Z" fill="white"/>
</g>
</g>
<defs>
<clipPath id="clip0_5_180">
<rect width="20" height="20" fill="white"/>
</clipPath>
<clipPath id="clip1_5_180">
<rect width="12.3077" height="12.3077" fill="white" transform="translate(3.84619 3.84613)"/>
</clipPath>
</defs>
</svg>
