<svg width="20" height="20" viewBox="0 0 20 20" fill="none" xmlns="http://www.w3.org/2000/svg">
<g clip-path="url(#clip0_5_156)">
<circle cx="10" cy="10" r="10" fill="#0098EA"/>
<g clip-path="url(#clip1_5_156)">
<path d="M4.03198 9.63821C5.29109 8.93301 6.6966 8.34445 8.00983 7.75287C10.2691 6.78392 12.5374 5.83176 14.8285 4.94531C15.2742 4.79427 16.0752 4.6466 16.1538 5.31831C16.1108 6.2691 15.9339 7.21432 15.8125 8.15955C15.5045 10.2382 15.1485 12.3097 14.8014 14.3815C14.6817 15.0715 13.8316 15.4288 13.2875 14.9872C11.9801 14.0893 10.6627 13.2001 9.37198 12.2813C8.94914 11.8444 9.34129 11.2172 9.71881 10.9052C10.7956 9.82613 11.9376 8.90947 12.9581 7.77469C13.2334 7.09869 12.42 7.66836 12.1518 7.84295C10.6776 8.87588 9.2395 9.97187 7.68527 10.8797C6.89137 11.324 5.96606 10.9443 5.17252 10.6963C4.46102 10.3968 3.4184 10.095 4.03189 9.6383L4.03198 9.63821Z" fill="white"/>
</g>
</g>
<defs>
<clipPath id="clip0_5_156">
<rect width="20" height="20" fill="white"/>
</clipPath>
<clipPath id="clip1_5_156">
<rect width="12.3077" height="12.3077" fill="white" transform="translate(3.84607 3.84604)"/>
</clipPath>
</defs>
</svg>
